<?xml version="1.0" encoding="UTF-8"?>
<svg width="44px" height="44px" viewBox="0 0 44 44" version="1.1" xmlns="http://www.w3.org/2000/svg" xmlns:xlink="http://www.w3.org/1999/xlink">
    <!-- Generator: Sketch 55.2 (78181) - https://sketchapp.com -->
    <title>clock (3)</title>
    <desc>Created with Sketch.</desc>
    <g id="Page-1" stroke="none" stroke-width="1" fill="none" fill-rule="evenodd">
        <g id="Skip-the-seed" transform="translate(-1217.000000, -1663.000000)" fill="#0F8A42" fill-rule="nonzero">
            <g id="ic_clock" transform="translate(1155.000000, 1601.000000)">
                <g id="clock-(3)" transform="translate(62.000000, 62.000000)">
                    <path d="M22,0 C9.86871342,0 0,9.86871342 0,22 C0,34.1312866 9.86871342,44 22,44 C34.1312866,44 44,34.1312866 44,22 C44,9.86871342 34.1312866,0 22,0 Z M32.4628906,33.3793335 C32.1053772,33.7368469 31.6360779,33.9167786 31.1667786,33.9167786 C30.6974792,33.9167786 30.2278443,33.7368469 29.8706665,33.3793335 L20.703888,24.2128906 C20.3591309,23.8701477 20.1667786,23.4042053 20.1667786,22.9167786 L20.1667786,11 C20.1667786,9.98620605 20.9878845,9.16677859 22,9.16677859 C23.0121155,9.16677859 23.8332214,9.98620605 23.8332214,11 L23.8332214,22.1577759 L32.4628906,30.7871094 C33.179596,31.5041504 33.179596,32.6626282 32.4628906,33.3793335 L32.4628906,33.3793335 Z" id="Shape"></path>
                </g>
            </g>
        </g>
    </g>
</svg>