<?xml version="1.0" encoding="UTF-8"?>
<svg width="37px" height="44px" viewBox="0 0 37 44" version="1.1" xmlns="http://www.w3.org/2000/svg" xmlns:xlink="http://www.w3.org/1999/xlink">
    <!-- Generator: Sketch 55.2 (78181) - https://sketchapp.com -->
    <title>flower</title>
    <desc>Created with Sketch.</desc>
    <g id="Page-1" stroke="none" stroke-width="1" fill="none" fill-rule="evenodd">
        <g id="Skip-the-seed" transform="translate(-664.000000, -1658.000000)" fill="#0F8A42" fill-rule="nonzero">
            <g id="ic_flower" transform="translate(597.000000, 1601.000000)">
                <g id="flower" transform="translate(67.000000, 57.000000)">
                    <path d="M6,19.1607888 C6,22.0193762 8.2767581,24.3393568 11.0820885,24.3393568 C12.1493337,24.3393568 13.1453975,23.9975692 13.9586003,23.4278908 L13.9179115,23.821432 C13.9179115,26.6800194 16.1946696,29 19,29 C21.8053304,29 24.0820885,26.6800194 24.0820885,23.821432 L24.0413997,23.4278908 C24.8647032,24.0078617 25.8506663,24.3393568 26.9179115,24.3393568 C29.7232419,24.3393568 32,22.0193762 32,19.1607888 C32,17.0996735 30.8107839,15.3285922 29.0929955,14.5000485 C30.8005879,13.6715049 32,11.9004236 32,9.83930826 C32,6.98072087 29.7232419,4.66074029 26.9179115,4.66074029 C25.8506663,4.66074029 24.8546025,5.00252792 24.0413997,5.57220632 L24.0820885,5.17866506 C24.0821837,2.31998058 21.8054257,0 19.0000953,0 C16.1947649,0 13.9180068,2.31998058 13.9180068,5.17856796 L13.9586956,5.57210922 C13.1352968,4.99213835 12.149429,4.66074029 11.0821837,4.66074029 C8.27685339,4.66074029 6,6.98072087 6,9.83930826 C6,11.9004236 7.18931142,13.6715049 8.90709982,14.5000485 C7.18921613,15.3286893 6,17.0997706 6,19.1607888 Z M19.0000953,9.32148059 C21.8054257,9.32148059 24.0821837,11.6414612 24.0821837,14.5000485 C24.0821837,17.3586359 21.8054257,19.6787136 19.0000953,19.6787136 C16.1947649,19.6787136 13.9180068,17.358733 13.9180068,14.5001456 C13.9180068,11.6415583 16.1947649,9.32148059 19.0000953,9.32148059 Z" id="Shape"></path>
                    <path d="M0,25 C0,35.4922552 8.50774479,44 19,44 C19,33.5077448 10.4922552,25 0,25 Z" id="Path"></path>
                    <path d="M18,44 C28.4922552,44 37,35.4922552 37,25 C26.5077448,25 18,33.5077448 18,44 Z" id="Path"></path>
                </g>
            </g>
        </g>
    </g>
</svg>