<?xml version="1.0" encoding="UTF-8"?>
<svg width="24px" height="53px" viewBox="0 0 24 53" version="1.1" xmlns="http://www.w3.org/2000/svg" xmlns:xlink="http://www.w3.org/1999/xlink">
    <!-- Generator: Sketch 55.2 (78181) - https://sketchapp.com -->
    <title>gel</title>
    <desc>Created with Sketch.</desc>
    <g id="Page-1" stroke="none" stroke-width="1" fill="none" fill-rule="evenodd">
        <g id="Skip-the-seed" transform="translate(-670.000000, -2045.000000)" fill="#0F8A42" fill-rule="nonzero">
            <g id="ic_sanitary" transform="translate(598.000000, 1987.000000)">
                <g id="gel" transform="translate(72.000000, 58.000000)">
                    <path d="M1.63148946,14 C0.730472216,14 0,14.7116224 0,15.5893889 L0,51.4106111 C0,52.2883776 0.730472216,53 1.63148946,53 L17.3685105,53 C18.2695278,53 19,52.2883776 19,51.4106111 L19,15.5893889 C19,14.7116224 18.2695278,14 17.3685105,14 L1.63148946,14 Z" id="Path"></path>
                    <path d="M23.1885397,2.45506714 C22.7060062,2.20382804 18.3898573,0 15.4666656,0 L3.67275304,0 C2.74894729,0 2,0.649219629 2,1.45001406 C2,2.25080849 2.74894729,2.90002812 3.67275304,2.90002812 L7.22958358,2.90002812 L7.22958358,7.61595719 L5.22830184,7.61595719 C4.3044961,7.61595719 3.55554881,8.26517681 3.55554881,9.06597125 L3.55554881,11 L14.2491244,11 L14.2491244,9.06597125 C14.2491244,8.26517681 13.5001771,7.61595719 12.5763714,7.61595719 L10.5750896,7.61595719 L10.5750896,2.90002812 L15.4665541,2.90002812 C16.9756003,2.90002812 19.9474134,4.1521636 21.4654925,4.94097125 C21.7351403,5.08142927 22.0321097,5.14832326 22.3252876,5.14832326 C22.8931315,5.14832326 23.4470358,4.89756749 23.7607327,4.44477643 C24.2366867,3.75833978 23.980421,2.86754781 23.1885397,2.45506714 Z" id="Path"></path>
                </g>
            </g>
        </g>
    </g>
</svg>