<?xml version="1.0" encoding="UTF-8"?>
<svg width="86px" height="218px" viewBox="0 0 86 218" version="1.1" xmlns="http://www.w3.org/2000/svg" xmlns:xlink="http://www.w3.org/1999/xlink">
    <!-- Generator: Sketch 55.2 (78181) - https://sketchapp.com -->
    <title>pic3</title>
    <desc>Created with Sketch.</desc>
    <g id="Page-1" stroke="none" stroke-width="1" fill="none" fill-rule="evenodd">
        <g id="Skip-the-seed" transform="translate(-927.000000, -980.000000)" fill-rule="nonzero">
            <g id="Group-3" transform="translate(927.000000, 978.000000)">
                <g id="pic3">
                    <path d="M10,87.7106435 C10.1658502,90.9845904 10,215 10,215 L18.84109,215 L32.364258,133.500949 C32.5352113,130.858816 35,101.648018 35,101.648018 L19.4355991,86 L10,87.7106435 Z" id="Path" fill="#56CAD8"></path>
                    <path d="M45.0304933,86 C45.0304933,86 55,149.375246 55,151.955167 C55,154.535088 38.67713,213 38.67713,213 L30.3022422,213 L37.4265471,145.592692 L13,88.5699411" id="Path" fill="#74D5DE"></path>
                    <path d="M2.9291475,63 C2.50111261,63.6378335 -0.192432875,70.0816492 0.010942816,72.6184317 C0.323100853,76.4987874 2.91968816,78.6451091 7.36084569,81 C8.63785584,81 10,65.8738884 10,65.8738884 L6.00579603,63 L2.9291475,63 Z" id="Path" fill="#DE8E68"></path>
                    <path d="M12,45 C6.13108455,49.9064658 1.15329743,59.5637163 2.12100709,61.341494 C2.58513643,62.1726303 5.00325027,63.6541117 7.76481981,65" id="Path" fill="#FCC486"></path>
                    <ellipse id="Oval" fill="#DE8E68" transform="translate(27.718702, 16.337478) rotate(-76.270000) translate(-27.718702, -16.337478) " cx="27.7187024" cy="16.3374784" rx="13.9898243" ry="11.083318"></ellipse>
                    <path d="M26.7100456,33 C41.0029268,33 46.8420452,83.2757264 44.4967422,86.3416235 C41.2976778,90.524205 18.4087401,93.8917065 8.92334891,87.2240036 C5.27453514,84.6690894 4.72060658,33 26.7100456,33 Z" id="Path" fill="#FED385"></path>
                    <polyline id="Path" fill="#000000" points="10 214 10 220 30 220 30 216.610995 18.5145595 214"></polyline>
                    <polyline id="Path" fill="#000000" points="30 213 30 220 52 220 52 217.277778 38.6177851 213"></polyline>
                    <path d="M46.8896514,58.3575344 C47.2893181,58.7727249 50.7471934,63.7031123 51.2303348,64.7559168 C52.1940879,63.9527209 83.1429578,38.6013857 83.6513945,38.2578649 C84.1598312,37.9143442 85.0401096,37.9440007 85.3841265,38.1713669 C85.9614299,38.54046 86.1646945,39.273228 85.8571497,39.8766137 C85.5839598,40.3708881 81.736536,43.677584 81.736536,43.677584 C82.0501984,44.0606467 83.6564536,48.0395558 81.599941,49.9079131 C80.2011077,51.1806698 78.6150888,51.6032744 77.0897788,50.8149067 C76.0779645,51.8850108 51.8905436,78 47.671278,78 C45.7184764,78 39.0202657,71.285282 36,66.2263832" id="Path" fill="#DE8E68"></path>
                    <path d="M25,47.25 C25,55.5 31.7191011,67 34.0449438,67 C36.3707865,67 48,58.75 48,56.75 C48,54.75 38.9550562,40 31.2022472,40 C28.1011236,40 25,43.25 25,47.25 Z" id="Path" fill="#FED892"></path>
                    <path d="M24.7638162,15.4649631 C29.1097537,15.497469 37,7.04092212 37,6.7133622 C37,5.96322498 35.6589102,2 27.8770603,2 C22.3185961,2 13.5737832,5.86070623 13.5737832,18.5405257 C13.5737832,25.06922 11,32.0429957 11,35.193572 C11,39.9819479 14.8896645,43 21.0329649,43 C24,43 28.4618965,41.5497347 28.4618965,39.1692993 C28.4618965,35.6886626 32.0616638,24.3790937 25.1847974,21.9161432" id="Path" fill="#000000"></path>
                    <path d="M27,20.6222649 C26.6100742,20.8668818 26.1555016,20.9980086 25.6905188,21 C24.2045319,21 23,19.6548946 23,17.9942422 C23,16.3335899 24.2045319,15 25.6905188,15 C25.9686979,14.9997793 26.2447728,15.0465494 26.5062612,15.1381965" id="Path" fill="#DE8E68"></path>
                </g>
            </g>
        </g>
    </g>
</svg>