<?xml version="1.0" encoding="UTF-8"?>
<svg width="44px" height="44px" viewBox="0 0 44 44" version="1.1" xmlns="http://www.w3.org/2000/svg" xmlns:xlink="http://www.w3.org/1999/xlink">
    <!-- Generator: Sketch 55.2 (78181) - https://sketchapp.com -->
    <title>price</title>
    <desc>Created with Sketch.</desc>
    <g id="Page-1" stroke="none" stroke-width="1" fill="none" fill-rule="evenodd">
        <g id="Skip-the-seed" transform="translate(-1217.000000, -2049.000000)" fill="#0F8A42" fill-rule="nonzero">
            <g id="ic_save-money" transform="translate(1155.000000, 1987.000000)">
                <g id="price" transform="translate(62.000000, 62.000000)">
                    <path d="M37.5563203,6.44359375 C33.4011562,2.28842969 27.8764922,0 22,0 C16.1235938,0 10.5989297,2.28842969 6.44367969,6.44359375 C2.28842969,10.5988438 0,16.1235078 0,22 C0,27.8764922 2.28834375,33.4011562 6.44367969,37.5564062 C10.5989297,41.7115703 16.1235938,44 22,44 C27.8764922,44 33.4011562,41.7115703 37.5564062,37.5564062 C41.7116563,33.4011562 44,27.8764922 44,22 C44,16.1235078 41.7116563,10.5988438 37.5563203,6.44359375 Z M23.3808438,31.5734375 L23.2890625,31.5734375 L23.2890625,34.4266484 C23.2890625,35.1385547 22.7119922,35.7157109 22,35.7157109 C21.2881797,35.7157109 20.7109375,35.1385547 20.7109375,34.4266484 L20.7109375,31.5734375 L17.8578984,31.5734375 C17.1460781,31.5734375 16.5688359,30.9962813 16.5688359,30.284375 C16.5688359,29.5724688 17.1460781,28.9953125 17.8578984,28.9953125 L23.3809297,28.9953125 C24.9541016,28.9953125 26.2339688,27.7153594 26.2339688,26.1421875 C26.2339688,24.5690156 24.9540156,23.2890625 23.3808438,23.2890625 L20.6192422,23.2890625 C17.6244922,23.2890625 15.1880781,20.8526484 15.1880781,17.8578984 C15.1880781,14.8630625 17.6245781,12.4266484 20.6192422,12.4266484 L20.7109375,12.4266484 L20.7109375,9.57352344 C20.7109375,8.86161719 21.2881797,8.28446094 22,8.28446094 C22.7119922,8.28446094 23.2890625,8.86161719 23.2890625,9.57352344 L23.2890625,12.4266484 L26.1422734,12.4266484 C26.8540938,12.4266484 27.4313359,13.0038047 27.4313359,13.7157109 C27.4313359,14.4276172 26.8540938,15.0047734 26.1422734,15.0047734 L20.6192422,15.0047734 C19.0459844,15.0047734 17.7662031,16.2846406 17.7662031,17.8578984 C17.7662031,19.4310703 19.0460703,20.7109375 20.6192422,20.7109375 L23.3808438,20.7109375 C26.3755938,20.7109375 28.8120078,23.1474375 28.8120078,26.1421875 C28.8120078,29.1369375 26.3755938,31.5734375 23.3808438,31.5734375 Z" id="Shape"></path>
                </g>
            </g>
        </g>
    </g>
</svg>